<svg width="188" height="26" viewBox="0 0 188 26" fill="none" xmlns="http://www.w3.org/2000/svg">
<g clip-path="url(#clip0_1_2)">
<path d="M2.27131 1.72727H5.63494L13.544 21.0455H13.8168L21.7259 1.72727H25.0895L25.0895 25H22.4531V7.31818H22.2259L14.9531 25H12.4077L5.13494 7.31818H4.90767L4.90767 25H2.27131L2.27131 1.72727ZM30.3764 25V7.54545H33.0582L33.0582 25H30.3764ZM31.7401 4.63636C31.2173 4.63636 30.7666 4.45833 30.3878 4.10227C30.0166 3.74621 29.831 3.31818 29.831 2.81818C29.831 2.31818 30.0166 1.89015 30.3878 1.53409C30.7666 1.17803 31.2173 1 31.7401 1C32.2628 1 32.7098 1.17803 33.081 1.53409C33.4598 1.89015 33.6491 2.31818 33.6491 2.81818C33.6491 3.31818 33.4598 3.74621 33.081 4.10227C32.7098 4.45833 32.2628 4.63636 31.7401 4.63636ZM40.652 1.72727L40.652 25H37.9702L37.9702 1.72727L40.652 1.72727ZM48.2457 1.72727L48.2457 25H45.5639L45.5639 1.72727H48.2457ZM55.5213 1.72727V3.77273C55.5213 4.39394 55.4077 5.05682 55.1804 5.76136C54.9607 6.45833 54.6349 7.13636 54.2031 7.79545C53.7789 8.44697 53.2637 9.01515 52.6577 9.5L51.2031 8.31818C51.6804 7.63636 52.0933 6.92803 52.4418 6.19318C52.7978 5.45076 52.9759 4.65909 52.9759 3.81818V1.72727H55.5213ZM68.9588 11.4545L66.5497 12.1364C66.3982 11.7348 66.1747 11.3447 65.8793 10.9659C65.5914 10.5795 65.1974 10.2614 64.6974 10.0114C64.1974 9.76136 63.5573 9.63636 62.777 9.63636C61.7088 9.63636 60.8187 9.88258 60.1065 10.375C59.402 10.8598 59.0497 11.4773 59.0497 12.2273C59.0497 12.8939 59.2921 13.4205 59.777 13.8068C60.2618 14.1932 61.0194 14.5152 62.0497 14.7727L64.6406 15.4091C66.2012 15.7879 67.3641 16.3674 68.1293 17.1477C68.8944 17.9205 69.277 18.9167 69.277 20.1364C69.277 21.1364 68.9891 22.0303 68.4134 22.8182C67.8452 23.6061 67.0497 24.2273 66.027 24.6818C65.0043 25.1364 63.8149 25.3636 62.4588 25.3636C60.6785 25.3636 59.205 24.9773 58.0384 24.2045C56.8717 23.4318 56.133 22.303 55.8224 20.8182L58.3679 20.1818C58.6103 21.1212 59.0687 21.8258 59.7429 22.2955C60.4247 22.7652 61.3149 23 62.4134 23C63.6634 23 64.6558 22.7348 65.3906 22.2045C66.133 21.6667 66.5043 21.0227 66.5043 20.2727C66.5043 19.6667 66.2921 19.1591 65.8679 18.75C65.4437 18.3333 64.7921 18.0227 63.9134 17.8182L61.0043 17.1364C59.4058 16.7576 58.2315 16.1705 57.4815 15.375C56.7391 14.572 56.3679 13.5682 56.3679 12.3636C56.3679 11.3788 56.6444 10.5076 57.1974 9.75C57.758 8.99242 58.5194 8.39773 59.4815 7.96591C60.4512 7.53409 61.5497 7.31818 62.777 7.31818C64.5043 7.31818 65.8603 7.69697 66.8452 8.45454C67.8376 9.21212 68.5421 10.2121 68.9588 11.4545Z" fill="#FF0000"/>
<path d="M82.6776 1.72727H86.0412L93.9503 21.0455H94.223L102.132 1.72727H105.496V25H102.859V7.31818H102.632L95.3594 25H92.8139L85.5412 7.31818H85.3139V25L82.6776 25V1.72727ZM117.874 25.3636C116.298 25.3636 114.915 24.9886 113.726 24.2386C112.544 23.4886 111.62 22.4394 110.953 21.0909C110.294 19.7424 109.964 18.1667 109.964 16.3636C109.964 14.5455 110.294 12.9583 110.953 11.6023C111.62 10.2462 112.544 9.19318 113.726 8.44318C114.915 7.69318 116.298 7.31818 117.874 7.31818C119.449 7.31818 120.828 7.69318 122.01 8.44318C123.199 9.19318 124.124 10.2462 124.783 11.6023C125.449 12.9583 125.783 14.5455 125.783 16.3636C125.783 18.1667 125.449 19.7424 124.783 21.0909C124.124 22.4394 123.199 23.4886 122.01 24.2386C120.828 24.9886 119.449 25.3636 117.874 25.3636ZM117.874 22.9545C119.071 22.9545 120.055 22.6477 120.828 22.0341C121.601 21.4205 122.173 20.6136 122.544 19.6136C122.915 18.6136 123.101 17.5303 123.101 16.3636C123.101 15.197 122.915 14.1098 122.544 13.1023C122.173 12.0947 121.601 11.2803 120.828 10.6591C120.055 10.0379 119.071 9.72727 117.874 9.72727C116.677 9.72727 115.692 10.0379 114.919 10.6591C114.146 11.2803 113.574 12.0947 113.203 13.1023C112.832 14.1098 112.646 15.197 112.646 16.3636C112.646 17.5303 112.832 18.6136 113.203 19.6136C113.574 20.6136 114.146 21.4205 114.919 22.0341C115.692 22.6477 116.677 22.9545 117.874 22.9545ZM143.524 7.54545L137.07 25H134.342L127.888 7.54545L130.797 7.54545L135.615 21.4545H135.797L140.615 7.54545H143.524ZM147.064 25V7.54545H149.746V25H147.064ZM148.428 4.63636C147.905 4.63636 147.454 4.45833 147.075 4.10227C146.704 3.74621 146.518 3.31818 146.518 2.81818C146.518 2.31818 146.704 1.89015 147.075 1.53409C147.454 1.17803 147.905 1 148.428 1C148.95 1 149.397 1.17803 149.768 1.53409C150.147 1.89015 150.337 2.31818 150.337 2.81818C150.337 3.31818 150.147 3.74621 149.768 4.10227C149.397 4.45833 148.95 4.63636 148.428 4.63636ZM161.976 25.3636C160.294 25.3636 158.843 24.9924 157.624 24.25C156.411 23.5 155.476 22.4545 154.817 21.1136C154.165 19.7652 153.839 18.197 153.839 16.4091C153.839 14.6212 154.165 13.0455 154.817 11.6818C155.476 10.3106 156.393 9.24242 157.567 8.47727C158.749 7.70455 160.127 7.31818 161.703 7.31818C162.612 7.31818 163.51 7.4697 164.396 7.77273C165.283 8.07576 166.089 8.56818 166.817 9.25C167.544 9.92424 168.124 10.8182 168.555 11.9318C168.987 13.0455 169.203 14.4167 169.203 16.0455V17.1818L155.749 17.1818V14.8636L166.476 14.8636C166.476 13.8788 166.279 13 165.885 12.2273C165.499 11.4545 164.946 10.8447 164.226 10.3977C163.514 9.95076 162.673 9.72727 161.703 9.72727C160.635 9.72727 159.711 9.99242 158.93 10.5227C158.158 11.0455 157.563 11.7273 157.146 12.5682C156.73 13.4091 156.521 14.3106 156.521 15.2727V16.8182C156.521 18.1364 156.749 19.2538 157.203 20.1705C157.665 21.0795 158.305 21.7727 159.124 22.25C159.942 22.7197 160.893 22.9545 161.976 22.9545C162.68 22.9545 163.317 22.8561 163.885 22.6591C164.461 22.4545 164.957 22.1515 165.374 21.75C165.79 21.3409 166.112 20.8333 166.339 20.2273L168.93 20.9545C168.658 21.8333 168.199 22.6061 167.555 23.2727C166.911 23.9318 166.116 24.447 165.169 24.8182C164.222 25.1818 163.158 25.3636 161.976 25.3636ZM185.646 11.4545L183.237 12.1364C183.086 11.7348 182.862 11.3447 182.567 10.9659C182.279 10.5795 181.885 10.2614 181.385 10.0114C180.885 9.76136 180.245 9.63636 179.464 9.63636C178.396 9.63636 177.506 9.88258 176.794 10.375C176.089 10.8598 175.737 11.4773 175.737 12.2273C175.737 12.8939 175.98 13.4205 176.464 13.8068C176.949 14.1932 177.707 14.5152 178.737 14.7727L181.328 15.4091C182.889 15.7879 184.052 16.3674 184.817 17.1477C185.582 17.9205 185.964 18.9167 185.964 20.1364C185.964 21.1364 185.677 22.0303 185.101 22.8182C184.533 23.6061 183.737 24.2273 182.714 24.6818C181.692 25.1364 180.502 25.3636 179.146 25.3636C177.366 25.3636 175.893 24.9773 174.726 24.2045C173.559 23.4318 172.821 22.303 172.51 20.8182L175.055 20.1818C175.298 21.1212 175.756 21.8258 176.43 22.2955C177.112 22.7652 178.002 23 179.101 23C180.351 23 181.343 22.7348 182.078 22.2045C182.821 21.6667 183.192 21.0227 183.192 20.2727C183.192 19.6667 182.98 19.1591 182.555 18.75C182.131 18.3333 181.48 18.0227 180.601 17.8182L177.692 17.1364C176.093 16.7576 174.919 16.1705 174.169 15.375C173.427 14.572 173.055 13.5682 173.055 12.3636C173.055 11.3788 173.332 10.5076 173.885 9.75C174.446 8.99242 175.207 8.39773 176.169 7.96591C177.139 7.53409 178.237 7.31818 179.464 7.31818C181.192 7.31818 182.548 7.69697 183.533 8.45454C184.525 9.21212 185.23 10.2121 185.646 11.4545Z" fill="white"/>
</g>
<defs>
<clipPath id="clip0_1_2">
<rect width="188" height="26" fill="white"/>
</clipPath>
</defs>
</svg>
